<svg width="64" height="64" fill="none" xmlns="http://www.w3.org/2000/svg"><rect width="64" height="64" rx="32" fill="#1D53C0"/><path fill-rule="evenodd" clip-rule="evenodd" d="M19.971 31.279c0-.463.137-.916.398-1.3.26-.386.63-.686 1.063-.863a2.394 2.394 0 012.582.507c.33.328.556.745.647 1.2.091.453.043.924-.137 1.351-.18.428-.485.793-.875 1.049a2.39 2.39 0 01-1.318.39h-2.36V31.28zm6.705.022a4.285 4.285 0 00-1.278-3.032 4.397 4.397 0 00-3.07-1.264 4.34 4.34 0 00-2.032.506 4.45 4.45 0 01.954-1.38 4.477 4.477 0 012.282-1.198 4.515 4.515 0 012.572.252 4.45 4.45 0 012 1.618c.49.723.753 1.572.755 2.441v4.406l-2.891-.014a4.212 4.212 0 00.708-2.335zm4.12 2.35v-4.407a6.253 6.253 0 00-.932-3.295 6.357 6.357 0 00-2.537-2.33 6.457 6.457 0 00-6.651.491c.317-.6.725-1.148 1.208-1.626a6.655 6.655 0 013.39-1.786 6.706 6.706 0 013.825.373 6.606 6.606 0 012.971 2.406 6.49 6.49 0 011.12 3.63l.007 7.647c0 .278.019.556.054.833a6.313 6.313 0 002.132 3.915 6.463 6.463 0 004.213 1.567 6.416 6.416 0 003.72-1.18 6.767 6.767 0 01-1.201 1.626 6.655 6.655 0 01-3.39 1.785 6.707 6.707 0 01-3.825-.372 6.614 6.614 0 01-2.973-2.405 6.49 6.49 0 01-1.122-3.63l-.008-3.243zm4.342-3.298l2.89.007a4.247 4.247 0 00-.697 2.69 4.26 4.26 0 001.122 2.547 4.354 4.354 0 002.466 1.332c.95.162 1.926.006 2.776-.441-.227.513-.548.98-.947 1.38a4.477 4.477 0 01-2.282 1.204 4.51 4.51 0 01-2.576-.25 4.448 4.448 0 01-2.001-1.621 4.36 4.36 0 01-.752-2.446l.001-4.402zm-.014-1.918v-1.326c0-1.11-.221-2.21-.652-3.236a8.45 8.45 0 00-1.855-2.743 8.617 8.617 0 00-6.054-2.477 8.654 8.654 0 00-3.277.643 8.572 8.572 0 00-2.778 1.833A8.402 8.402 0 0018 27.108V33.9c0 1.305.746 1.666 1.83 1.666h9.038v1.326c0 2.242.902 4.393 2.508 5.979a8.616 8.616 0 006.054 2.476 8.61 8.61 0 006.053-2.476 8.403 8.403 0 002.509-5.98v-4.165l.006-.014v-2.56a1.62 1.62 0 00-.507-1.27 1.663 1.663 0 00-1.304-.45h-9.063v.003zm6.533 6.627a2.391 2.391 0 01-1.674-.685 2.334 2.334 0 01-.694-1.653 2.31 2.31 0 01.694-1.654 2.367 2.367 0 011.674-.684h2.364v2.334c0 .62-.249 1.215-.692 1.654a2.383 2.383 0 01-1.672.688z" fill="#fff"/></svg>