<svg width="30" height="16" fill="none" xmlns="http://www.w3.org/2000/svg"><path d="M10.05 12.497a3.112 3.112 0 11-3.11-3.13 3.092 3.092 0 013.11 3.13zm17.234 0a3.112 3.112 0 11-3.11-3.13 3.092 3.092 0 013.11 3.13z" fill="#fff"/><path d="M28.472 6.068L23.777 5.2a2.32 2.32 0 01-1.339-.434 413.028 413.028 0 00-4.412-3.657A2.527 2.527 0 0016.253.41H9.315a2.526 2.526 0 00-2 .905L4.432 4.748a.622.622 0 01-.603.282H2.13A2.15 2.15 0 000 7.161V9.84c0 1.678.66 2.828 2.338 2.545a4.297 4.297 0 014.507-4.43h1.018a4.034 4.034 0 011.885.772 5.657 5.657 0 011.358 1.886c.216.547.337 1.127.358 1.716h8.051a4.563 4.563 0 013.771-4.47h1.415a4.526 4.526 0 013.884 4.356 2.168 2.168 0 001.414-1.885V8.16a2.111 2.111 0 00-1.527-2.092zM10.71 4.182a.733.733 0 01-.471.725.735.735 0 01-.302.048h-2.96a.567.567 0 01-.434-.207.528.528 0 01.113-.453l1.886-2.3a.903.903 0 01.678-.32h.641a.752.752 0 01.792.791l.057 1.716zm9.24.622c0 .113-.114.151-.322.151h-6.542c-.604 0-.868-.283-.868-.886V2.485a.755.755 0 01.811-.83h3.262a.98.98 0 01.528.283c1.018.773 1.886 1.603 2.828 2.376.17.226.378.358.302.566v-.076z" fill="#fff"/></svg>