<svg width="16" height="13" fill="none" xmlns="http://www.w3.org/2000/svg"><path d="M7.986.375c1.112.018 2.106.237 2.98.656.876.42 1.641.94 2.298 1.559a10.498 10.498 0 011.586 1.86c.419.637.738 1.211.957 1.722a.821.821 0 010 .656c-.22.51-.538 1.085-.957 1.723a10.5 10.5 0 01-1.586 1.86 8.95 8.95 0 01-2.297 1.558c-.875.419-1.869.638-2.98.656-1.113-.018-2.106-.237-2.981-.656a8.949 8.949 0 01-2.297-1.559 10.498 10.498 0 01-1.586-1.86c-.42-.637-.73-1.211-.93-1.722a.822.822 0 010-.656c.2-.51.51-1.085.93-1.723.42-.638.948-1.258 1.586-1.86a8.946 8.946 0 012.297-1.558C5.88.612 6.874.393 7.986.375zM4.05 6.5c0 .71.173 1.367.52 1.969a3.949 3.949 0 001.449 1.449 3.98 3.98 0 003.938 0 3.947 3.947 0 001.448-1.45c.347-.6.52-1.257.52-1.968 0-.71-.173-1.367-.52-1.969a3.947 3.947 0 00-1.449-1.449 3.976 3.976 0 00-1.969-.52c-.692 0-1.349.174-1.968.52a3.947 3.947 0 00-1.45 1.45 3.877 3.877 0 00-.52 1.968zm3.937-1.75c0-.2-.027-.383-.082-.547-.036-.182.028-.292.192-.328a2.775 2.775 0 011.531.574c.438.347.738.802.902 1.367.164.73.073 1.395-.273 1.997-.347.601-.875 1.011-1.586 1.23-.73.164-1.395.073-1.996-.273-.602-.347-1.012-.875-1.23-1.586a2.182 2.182 0 01-.083-.575c.037-.164.146-.227.328-.191.165.055.347.082.547.082.493-.018.903-.191 1.23-.52.329-.328.502-.738.52-1.23z" fill="#737580"/></svg>