<svg width="22" height="24" fill="none" xmlns="http://www.w3.org/2000/svg"><path d="M3.5 1.5v.75l3.234-.797c1.844-.437 3.625-.25 5.344.563a7.388 7.388 0 003.422.843c1.188 0 2.344-.28 3.469-.843l.422-.235c.53-.218 1-.187 1.406.094.437.25.672.656.703 1.219v11.625c-.031.656-.36 1.125-.984 1.406l-1.594.61c-2.281.812-4.5.687-6.656-.376-1.844-.875-3.766-1.078-5.766-.609l-3 .75v6c0 .438-.14.797-.422 1.078C2.797 23.86 2.438 24 2 24c-.438 0-.797-.14-1.078-.422C.64 23.297.5 22.938.5 22.5v-21C.5 1.062.64.703.922.422 1.203.14 1.562 0 2 0c.438 0 .797.14 1.078.422.281.281.422.64.422 1.078z" fill="#1D53C0"/></svg>