<svg width="16" height="16" viewBox="0 0 16 16" xmlns="http://www.w3.org/2000/svg">
	<path d="M14 8C13.9583 6.29167 13.375 4.875 12.25 3.75C11.125 2.625 9.70833 2.04167 8 2C7.70833 2 7.46875 1.90625 7.28125 1.71875C7.09375 1.53125 7 1.29167 7 1C7 0.708333 7.09375 0.46875 7.28125 0.28125C7.46875 0.09375 7.70833 0 8 0C9.5 0.0208333 10.8438 0.385417 12.0312 1.09375C13.2396 1.80208 14.1979 2.76042 14.9062 3.96875C15.6146 5.15625 15.9792 6.5 16 8C15.9792 9.5 15.6146 10.8438 14.9062 12.0312C14.1979 13.2396 13.2396 14.1979 12.0312 14.9062C10.8438 15.6146 9.5 15.9792 8 16C7.70833 16 7.46875 15.9062 7.28125 15.7188C7.09375 15.5312 7 15.2917 7 15C7 14.7083 7.09375 14.4688 7.28125 14.2812C7.46875 14.0938 7.70833 14 8 14C9.70833 13.9583 11.125 13.375 12.25 12.25C13.375 11.125 13.9583 9.70833 14 8ZM7.21875 3.78125L10.7188 7.28125C10.9062 7.48958 11 7.72917 11 8C11 8.27083 10.9062 8.51042 10.7188 8.71875L7.21875 12.2188C7.01042 12.4062 6.77083 12.5 6.5 12.5C6.22917 12.5 5.98958 12.4062 5.78125 12.2188C5.59375 12.0104 5.5 11.7708 5.5 11.5C5.5 11.2292 5.59375 10.9896 5.78125 10.7812L7.59375 9H1C0.708333 9 0.46875 8.90625 0.28125 8.71875C0.09375 8.53125 0 8.29167 0 8C0 7.70833 0.09375 7.46875 0.28125 7.28125C0.46875 7.09375 0.708333 7 1 7H7.59375L5.78125 5.21875C5.59375 5.01042 5.5 4.77083 5.5 4.5C5.5 4.22917 5.59375 3.98958 5.78125 3.78125C5.98958 3.59375 6.22917 3.5 6.5 3.5C6.77083 3.5 7.01042 3.59375 7.21875 3.78125Z" />
</svg>
