<svg width="16" height="16" fill="none" xmlns="http://www.w3.org/2000/svg"><path d="M2.313 2.75h11.374c.365.018.675.146.93.383.237.255.365.565.383.93-.018.437-.191.783-.52 1.039L8.52 9.586c-.347.219-.693.219-1.04 0L1.52 5.102c-.33-.256-.502-.602-.52-1.04a1.43 1.43 0 01.383-.93 1.43 1.43 0 01.93-.382zM1 5.813l5.96 4.457c.31.237.657.355 1.04.355s.73-.118 1.04-.355L15 5.813V11.5c-.018.492-.191.902-.52 1.23-.328.329-.738.502-1.23.52H2.75c-.492-.018-.902-.191-1.23-.52-.329-.328-.502-.738-.52-1.23V5.812z" fill="#1D53C0"/></svg>