<svg width="24" height="24" fill="none" xmlns="http://www.w3.org/2000/svg"><path d="M12 0c2.25.031 4.266.578 6.047 1.64a11.888 11.888 0 014.312 4.313C23.422 7.734 23.97 9.75 24 12c-.031 2.25-.578 4.266-1.64 6.047a11.888 11.888 0 01-4.313 4.312C16.266 23.422 14.25 23.97 12 24c-2.25-.031-4.266-.578-6.047-1.64a11.888 11.888 0 01-4.312-4.313C.578 16.266.03 14.25 0 12c0-1.688.328-3.266.984-4.734.625-1.47 1.5-2.75 2.625-3.844A1.564 1.564 0 014.688 3c.375 0 .718.156 1.03.469.282.312.423.656.423 1.031 0 .406-.141.766-.422 1.078C3.969 7.266 3.062 9.406 3 12c.063 2.563.938 4.688 2.625 6.375C7.313 20.063 9.438 20.938 12 21c2.563-.063 4.688-.938 6.375-2.625C20.063 16.687 20.938 14.562 21 12c-.031-2.281-.75-4.234-2.156-5.86-1.375-1.593-3.157-2.593-5.344-3V4.5c0 .438-.14.797-.422 1.078C12.797 5.86 12.438 6 12 6c-.438 0-.797-.14-1.078-.422-.281-.281-.422-.64-.422-1.078v-3c0-.438.14-.797.422-1.078C11.203.14 11.562 0 12 0zM9.047 7.453l3.75 3.75c.437.531.437 1.063 0 1.594-.531.437-1.063.437-1.594 0l-3.75-3.75c-.437-.531-.437-1.063 0-1.594.531-.437 1.063-.437 1.594 0z" fill="#1D53C0"/></svg>