<svg width="24" height="22" fill="none" xmlns="http://www.w3.org/2000/svg"><path d="M3 2v15.75c.031.469.281.719.75.75H22.5c.438 0 .797.14 1.078.422.281.281.422.64.422 1.078 0 .438-.14.797-.422 1.078-.281.281-.64.422-1.078.422H3.75c-1.063-.031-1.953-.39-2.672-1.078C.391 19.703.031 18.812 0 17.75V2c0-.438.14-.797.422-1.078C.703.64 1.062.5 1.5.5c.438 0 .797.14 1.078.422C2.86 1.203 3 1.562 3 2zm19.078 4.078l-6 6A1.564 1.564 0 0115 12.5a1.56 1.56 0 01-1.078-.422L11.25 9.36l-4.172 4.22A1.564 1.564 0 016 14a1.56 1.56 0 01-1.078-.422A1.564 1.564 0 014.5 12.5c0-.406.14-.766.422-1.078l5.25-5.25a1.564 1.564 0 011.078-.422c.406 0 .766.14 1.078.422L15 8.89l4.922-4.97A1.564 1.564 0 0121 3.5c.406 0 .766.14 1.078.422.281.312.422.672.422 1.078s-.14.766-.422 1.078z" fill="#1D53C0"/></svg>