<svg width="16" height="14" xmlns="http://www.w3.org/2000/svg">
	<path fill-rule="evenodd" clip-rule="evenodd" d="M12.256 13.519c.215.152.491.19.738.097a.774.774 0 00.483-.56c.579-2.723 1.984-9.614 2.512-12.09a.52.52 0 00-.174-.506.534.534 0 00-.531-.094C12.489 1.401 3.88 4.631.362 5.933A.551.551 0 000 6.466c.008.236.167.44.396.509 1.578.472 3.649 1.129 3.649 1.129s.968 2.923 1.472 4.41c.064.186.21.333.402.384a.578.578 0 00.541-.139l2.064-1.948s2.381 1.746 3.732 2.708zm-7.34-5.785l1.12 3.692.248-2.338 6.79-6.124a.185.185 0 00.022-.251.19.19 0 00-.25-.043l-7.93 5.064z" />
</svg>