<svg width="30" height="24" fill="none" xmlns="http://www.w3.org/2000/svg"><path d="M15.994 4.631H0v7.463h15.994V4.63zM11.213.075H4.8v3.019h6.413V.075zM7.8 23.925a3.375 3.375 0 100-6.75 3.375 3.375 0 000 6.75zm17.026 0a3.375 3.375 0 100-6.75 3.375 3.375 0 000 6.75z" fill="#fff"/><path d="M24.825 15.506a5.009 5.009 0 014.294 2.438A52.76 52.76 0 0030 11.7c-.15-.694-4.65-8.194-4.65-8.194h-7.744v10.125H0v5.963h2.85a5.024 5.024 0 019.9 0h7.125a5.044 5.044 0 014.95-4.088zm-4.762-9.525h3.9l2.943 5.175h-6.843V5.981z" fill="#fff"/></svg>