<svg width="22" height="24" fill="none" xmlns="http://www.w3.org/2000/svg"><path d="M10.625 0h.75c.688.063 1.063.438 1.125 1.125V3.75l1.313-2.672a6.21 6.21 0 012.203 2.016A6.32 6.32 0 0117 6c.688.063 1.063.438 1.125 1.125-.063.688-.438 1.063-1.125 1.125H5c-.688-.063-1.063-.438-1.125-1.125C3.938 6.437 4.313 6.062 5 6a6.32 6.32 0 01.984-2.906 6.21 6.21 0 012.204-2.016L9.5 3.75V1.125C9.563.437 9.938.062 10.625 0zM11 15c-1.563-.031-2.89-.531-3.984-1.5-1.094-1-1.75-2.25-1.97-3.75h11.907c-.219 1.5-.875 2.75-1.969 3.75-1.093.969-2.421 1.469-3.984 1.5zm-4.219 1.5h8.438c1.781.031 3.265.64 4.453 1.828 1.187 1.188 1.797 2.672 1.828 4.453-.063.75-.469 1.157-1.219 1.219H1.72C.969 23.937.562 23.531.5 22.781c.031-1.781.64-3.265 1.828-4.453C3.516 17.141 5 16.531 6.781 16.5z" fill="#1D53C0"/></svg>