<svg width="10" height="10" viewBox="0 0 10 10" xmlns="http://www.w3.org/2000/svg">
	<path d="M9.78125 1.28125L6.0625 5L9.78125 8.71875C10.0729 9.07292 10.0729 9.42708 9.78125 9.78125C9.42708 10.0729 9.07292 10.0729 8.71875 9.78125L5 6.0625L1.28125 9.78125C0.927083 10.0729 0.572917 10.0729 0.21875 9.78125C-0.0729167 9.42708 -0.0729167 9.07292 0.21875 8.71875L3.9375 5L0.21875 1.28125C-0.0729167 0.927083 -0.0729167 0.572917 0.21875 0.21875C0.572917 -0.0729167 0.927083 -0.0729167 1.28125 0.21875L5 3.9375L8.71875 0.21875C9.07292 -0.0729167 9.42708 -0.0729167 9.78125 0.21875C10.0729 0.572917 10.0729 0.927083 9.78125 1.28125Z" />
</svg>