<svg width="10" height="10" fill="none" xmlns="http://www.w3.org/2000/svg"><path d="M9.719 1.719L6.406 5 9.72 8.281c.186.209.28.449.28.719 0 .27-.094.51-.281.719A1.043 1.043 0 019 10c-.27 0-.51-.094-.719-.281L5 6.406 1.719 9.72A1.043 1.043 0 011 10c-.27 0-.51-.094-.719-.281A1.043 1.043 0 010 9c0-.27.094-.51.281-.719L3.594 5 .28 1.719A1.043 1.043 0 010 1C0 .73.094.49.281.281.49.094.73 0 1 0c.27 0 .51.094.719.281L5 3.594 8.281.28C8.49.094 8.73 0 9 0c.27 0 .51.094.719.281C9.906.49 10 .73 10 1c0 .27-.094.51-.281.719z" fill="#D92B2B"/></svg>