<svg width="147" height="54" fill="none" xmlns="http://www.w3.org/2000/svg"><g clip-path="url(#clip0_52_2706)"><path d="M5.975 48.545c-1.492 0-2.486-.978-2.819-2.608L.172 34.204a2.73 2.73 0 01-.166-1.14A1.485 1.485 0 01.67 31.76a2.038 2.038 0 011.493-.49 1.767 1.767 0 011.36.38 1.73 1.73 0 01.63 1.25l2.32 10.755L9.456 32.9a2.14 2.14 0 01.852-1.245c.427-.3.95-.436 1.47-.385 1.327 0 2.156.489 2.322 1.63l3.15 10.755 2.155-10.43c.331-1.305.995-1.955 2.155-1.955a2.01 2.01 0 011.453.455c.405.337.657.817.703 1.337 0 .326-.166.815-.166 1.141l-3.316 11.734a4.363 4.363 0 01-.83 1.955 3.736 3.736 0 01-2.155.65 3.007 3.007 0 01-1.763-.601 2.945 2.945 0 01-1.056-1.517l-2.651-9.776L9.126 46.1c-.498 1.63-1.493 2.445-3.15 2.445zM37.311 31.27a2.878 2.878 0 011.883.521c.546.388.936.954 1.1 1.598l4.81 12.221c.165.363.276.747.33 1.141a2 2 0 01-.663 1.304 2.705 2.705 0 01-1.492.489 2.614 2.614 0 01-1.443-.54 2.563 2.563 0 01-.878-1.253l-.663-2.118H33.83L33 46.752c-.332 1.141-.995 1.793-1.99 1.793a2.057 2.057 0 01-1.492-.49 1.832 1.832 0 01-.497-1.303 2.38 2.38 0 01.166-1.14l4.808-11.897c.663-1.63 1.824-2.444 3.316-2.444zm-.166 4.074l-2.156 6.03h4.145l-1.99-6.03zm15.585-1.303c0-1.793.663-2.77 2.155-2.77 1.327 0 1.99.977 1.99 2.77v10.755h3.647c1.99 0 2.984.489 2.984 1.792 0 1.141-.994 1.63-2.984 1.63H55.55a3.466 3.466 0 01-2.156-.489 1.998 1.998 0 01-.663-1.792l-.001-11.896zm22.05 11.734c0 1.792-.663 2.77-2.155 2.77-1.327 0-1.99-.977-1.99-2.77V34.04c0-1.792.663-2.77 1.99-2.77 1.492 0 2.155.978 2.155 2.77v11.734zm8.29-5.867a8.971 8.971 0 012.321-6.193 8.785 8.785 0 012.979-1.879 8.87 8.87 0 013.488-.565 9 9 0 013.573.543 8.91 8.91 0 013.059 1.901c1.658 1.63 2.322 3.586 2.322 6.193a8.239 8.239 0 01-.514 3.334 8.297 8.297 0 01-1.808 2.859 8.912 8.912 0 01-3.06 1.901 9.002 9.002 0 01-3.572.543 8.865 8.865 0 01-3.487-.565 8.781 8.781 0 01-2.979-1.879 8.97 8.97 0 01-2.322-6.193zm4.476 0a5.282 5.282 0 00.995 3.422c.371.524.87.947 1.448 1.232a3.92 3.92 0 001.868.398 4.016 4.016 0 001.954-.37 3.965 3.965 0 001.529-1.26 6.394 6.394 0 000-6.844 3.964 3.964 0 00-1.528-1.26 4.017 4.017 0 00-1.955-.37 3.727 3.727 0 00-1.88.374 3.674 3.674 0 00-1.436 1.256 5.282 5.282 0 00-.995 3.422zm23.875-4.889a10.54 10.54 0 01-2.818-.163c-1.161-.163-1.824-.65-1.824-1.63 0-1.14.995-1.792 2.984-1.792h7.458c1.99 0 2.984.65 2.984 1.792 0 .978-.663 1.467-1.657 1.63-.984.177-1.987.232-2.985.163v10.756c0 1.792-.663 2.77-1.99 2.77-1.492 0-2.155-.977-2.155-2.77l.003-10.756z" fill="#212126"/><path fill-rule="evenodd" clip-rule="evenodd" d="M115.052 19.634a2.774 2.774 0 01.476-1.56 2.832 2.832 0 011.274-1.033 2.871 2.871 0 013.095.608c.397.393.667.893.776 1.437a2.769 2.769 0 01-.164 1.62 2.82 2.82 0 01-1.049 1.258 2.864 2.864 0 01-1.579.468h-2.829v-2.798zm8.036.026a5.135 5.135 0 00-1.532-3.634 5.27 5.27 0 00-3.68-1.515 5.2 5.2 0 00-2.435.606 5.318 5.318 0 011.144-1.653 5.369 5.369 0 012.735-1.437 5.41 5.41 0 013.083.302 5.333 5.333 0 012.396 1.94c.588.866.903 1.884.906 2.926v5.281l-3.465-.017a5.055 5.055 0 00.848-2.8zm4.939 2.816v-5.28a7.49 7.49 0 00-1.118-3.95 7.62 7.62 0 00-3.041-2.794 7.738 7.738 0 00-7.972.59 8.008 8.008 0 011.449-1.95 7.974 7.974 0 014.064-2.14 8.038 8.038 0 014.584.447 7.925 7.925 0 013.561 2.884 7.785 7.785 0 011.342 4.35l.008 9.166c.001.334.023.667.065.998a7.57 7.57 0 002.555 4.692 7.749 7.749 0 005.05 1.88 7.69 7.69 0 004.46-1.416 8.12 8.12 0 01-1.441 1.95 7.976 7.976 0 01-4.064 2.14 8.041 8.041 0 01-4.584-.447 7.933 7.933 0 01-3.563-2.883 7.776 7.776 0 01-1.344-4.35l-.011-3.887zm5.204-3.952l3.463.008a5.086 5.086 0 00.51 6.277 5.218 5.218 0 002.956 1.597 5.254 5.254 0 003.327-.529 5.464 5.464 0 01-1.134 1.654 5.368 5.368 0 01-2.737 1.444c-1.035.204-2.11.1-3.086-.3a5.328 5.328 0 01-2.399-1.944 5.224 5.224 0 01-.901-2.931l.001-5.276zm-.018-2.3v-1.588c0-1.33-.264-2.649-.78-3.879a10.131 10.131 0 00-2.224-3.288 10.33 10.33 0 00-7.256-2.969c-1.349 0-2.683.262-3.928.771a10.275 10.275 0 00-3.33 2.197 10.073 10.073 0 00-3.006 7.166v8.142c0 1.563.894 1.996 2.193 1.996h10.833v1.589c0 2.688 1.082 5.266 3.006 7.167a10.33 10.33 0 007.257 2.968 10.33 10.33 0 007.256-2.968 10.074 10.074 0 003.006-7.167v-4.993l.007-.016v-3.069a1.931 1.931 0 00-.135-.826 1.968 1.968 0 00-1.194-1.134 2.01 2.01 0 00-.841-.102h-10.864v.004zm7.831 7.944a2.87 2.87 0 01-2.006-.82 2.765 2.765 0 01-.616-3.054 2.837 2.837 0 012.622-1.73h2.834v2.797a2.786 2.786 0 01-.829 1.982 2.86 2.86 0 01-2.005.825z" fill="#1D53C0"/></g><defs><clipPath id="clip0_52_2706"><path fill="#fff" d="M0 0h146.25v54H0z"/></clipPath></defs></svg>