<?xml version="1.0" encoding="utf-8"?><svg viewBox="0 0 147 64" xmlns="http://www.w3.org/2000/svg" xmlns:xlink="http://www.w3.org/1999/xlink"><style>:root>svg{display:none}:root>svg:target{display:block}</style><svg viewBox="0 0 24 24" id="angle" xmlns="http://www.w3.org/2000/svg"><path d="M12.719 15.219A1.044 1.044 0 0112 15.5c-.27 0-.51-.094-.719-.281l-5-5A1.043 1.043 0 016 9.5c0-.27.094-.51.281-.719C6.49 8.594 6.73 8.5 7 8.5c.27 0 .51.094.719.281L12 13.094l4.281-4.313c.209-.187.448-.281.719-.281.27 0 .51.094.719.281.187.209.281.448.281.719 0 .27-.094.51-.281.719l-5 5z"/></svg><svg fill="none" viewBox="0 0 10 10" id="arrow-btn" xmlns="http://www.w3.org/2000/svg"><path d="M10 .966v5.772a.992.992 0 01-.294.673.991.991 0 01-.672.294.992.992 0 01-.673-.294.992.992 0 01-.294-.673l.021-3.482-6.45 6.45A.925.925 0 01.967 10a.925.925 0 01-.672-.294A.925.925 0 010 9.034c0-.252.098-.477.294-.673l6.45-6.45-3.482.022a.992.992 0 01-.673-.294.992.992 0 01-.294-.673.992.992 0 01.294-.672A.992.992 0 013.262 0h5.772c.266.014.49.112.672.294.182.182.28.406.294.672z" fill="#fff"/></svg><svg fill="none" viewBox="0 0 30 16" id="car" xmlns="http://www.w3.org/2000/svg"><path d="M10.05 12.497a3.112 3.112 0 11-3.11-3.13 3.092 3.092 0 013.11 3.13zm17.234 0a3.112 3.112 0 11-3.11-3.13 3.092 3.092 0 013.11 3.13z" fill="#fff"/><path d="M28.472 6.068L23.777 5.2a2.32 2.32 0 01-1.339-.434 413.028 413.028 0 00-4.412-3.657A2.527 2.527 0 0016.253.41H9.315a2.526 2.526 0 00-2 .905L4.432 4.748a.622.622 0 01-.603.282H2.13A2.15 2.15 0 000 7.161V9.84c0 1.678.66 2.828 2.338 2.545a4.297 4.297 0 014.507-4.43h1.018a4.034 4.034 0 011.885.772 5.657 5.657 0 011.358 1.886c.216.547.337 1.127.358 1.716h8.051a4.563 4.563 0 013.771-4.47h1.415a4.526 4.526 0 013.884 4.356 2.168 2.168 0 001.414-1.885V8.16a2.111 2.111 0 00-1.527-2.092zM10.71 4.182a.733.733 0 01-.471.725.735.735 0 01-.302.048h-2.96a.567.567 0 01-.434-.207.528.528 0 01.113-.453l1.886-2.3a.903.903 0 01.678-.32h.641a.752.752 0 01.792.791l.057 1.716zm9.24.622c0 .113-.114.151-.322.151h-6.542c-.604 0-.868-.283-.868-.886V2.485a.755.755 0 01.811-.83h3.262a.98.98 0 01.528.283c1.018.773 1.886 1.603 2.828 2.376.17.226.378.358.302.566v-.076z" fill="#fff"/></svg><svg fill="none" viewBox="0 0 14 10" id="check" xmlns="http://www.w3.org/2000/svg"><path d="M13.719.281C13.906.49 14 .73 14 1c0 .27-.094.51-.281.719l-8 8A1.043 1.043 0 015 10c-.27 0-.51-.094-.719-.281l-4-4A1.043 1.043 0 010 5c0-.27.094-.51.281-.719C.49 4.094.73 4 1 4c.27 0 .51.094.719.281L5 7.594 12.281.28C12.49.094 12.73 0 13 0c.27 0 .51.094.719.281z" fill="#11B347"/></svg><svg fill="none" viewBox="0 0 14 15" id="clock" xmlns="http://www.w3.org/2000/svg"><path d="M7 .5c1.276.018 2.443.328 3.5.93A7.232 7.232 0 0113.07 4c.62 1.112.93 2.279.93 3.5s-.31 2.388-.93 3.5a7.232 7.232 0 01-2.57 2.57c-1.057.602-2.224.912-3.5.93-1.276-.018-2.443-.328-3.5-.93A7.232 7.232 0 01.93 11C.31 9.888 0 8.721 0 7.5S.31 5.112.93 4A7.232 7.232 0 013.5 1.43C4.557.828 5.724.518 7 .5zm-.656 3.281V7.5c0 .237.1.42.3.547l2.626 1.75c.346.2.647.137.902-.192.2-.346.137-.647-.192-.902L7.656 7.145V3.78c-.036-.4-.255-.62-.656-.656-.401.036-.62.255-.656.656z" fill="#737580"/></svg><svg fill="none" viewBox="0 0 30 22" id="cloud" xmlns="http://www.w3.org/2000/svg"><path d="M6.75 21.5c-1.906-.063-3.5-.719-4.781-1.969C.719 18.25.062 16.656 0 14.75c.031-1.5.453-2.813 1.266-3.938.812-1.124 1.89-1.937 3.234-2.437V8c.063-2.125.797-3.89 2.203-5.297C8.11 1.297 9.875.563 12 .5c1.406.031 2.672.375 3.797 1.031a8.08 8.08 0 012.719 2.719c.718-.5 1.547-.75 2.484-.75 1.281.031 2.344.469 3.188 1.313.843.843 1.28 1.906 1.312 3.187 0 .563-.094 1.11-.281 1.64 1.375.282 2.515.97 3.422 2.063.875 1.063 1.328 2.328 1.359 3.797-.031 1.688-.61 3.11-1.734 4.266C27.109 20.89 25.688 21.469 24 21.5H6.75zM15 6.5c-.688.063-1.063.438-1.125 1.125v5.25c.063.688.438 1.063 1.125 1.125.688-.063 1.063-.438 1.125-1.125v-5.25C16.062 6.937 15.687 6.562 15 6.5zM16.5 17c0-.438-.14-.797-.422-1.078-.281-.281-.64-.422-1.078-.422-.438 0-.797.14-1.078.422-.281.281-.422.64-.422 1.078 0 .438.14.797.422 1.078.281.281.64.422 1.078.422.438 0 .797-.14 1.078-.422.281-.281.422-.64.422-1.078z" fill="#1D53C0"/></svg><svg fill="none" viewBox="0 0 30 22" id="combine" xmlns="http://www.w3.org/2000/svg"><path d="M27.712 18.181l-5.85-5.85 7.126-7.125V.256H13.125V2.62h3.75v2.587H2.887L0 6.688l1.087 2.1 2.382-1.22h2.7v2.345H4.294L.356 11.956l1.875 3.488a4.556 4.556 0 017.613 1.425h3.75a4.575 4.575 0 014.35-3.225 4.518 4.518 0 012.775.956l5.981 6H30v-2.419h-2.288zM26.606 2.62v1.61L21.92 8.938v-6.32h4.687z" fill="#fff"/><path d="M5.624 15.332a3.205 3.205 0 103.207 3.206 3.225 3.225 0 00-3.207-3.207zm12.358 0a3.206 3.206 0 103.224 3.206 3.225 3.225 0 00-3.224-3.207z" fill="#fff"/></svg><svg fill="none" viewBox="0 0 22 24" id="database" xmlns="http://www.w3.org/2000/svg"><path d="M21.5 3.75V6c-.063 1.063-1.094 1.953-3.094 2.672C16.438 9.359 13.97 9.719 11 9.75c-2.969-.031-5.438-.39-7.406-1.078C1.594 7.953.563 7.062.5 6V3.75c.063-1.063 1.094-1.953 3.094-2.672C5.563.391 8.03.031 11 0c2.969.031 5.438.39 7.406 1.078 2 .719 3.032 1.61 3.094 2.672zm-2.578 6.328c1-.344 1.86-.797 2.578-1.36V13.5c-.063 1.063-1.094 1.953-3.094 2.672-1.968.687-4.437 1.047-7.406 1.078-2.969-.031-5.438-.39-7.406-1.078-2-.719-3.031-1.61-3.094-2.672V8.719c.719.562 1.578 1.015 2.578 1.36 2.188.75 4.828 1.14 7.922 1.171 3.094-.031 5.734-.422 7.922-1.172zM.5 16.218c.719.563 1.578 1.016 2.578 1.36 2.188.75 4.828 1.14 7.922 1.172 3.094-.031 5.734-.422 7.922-1.172 1-.344 1.86-.797 2.578-1.36v4.032c-.063 1.063-1.094 1.953-3.094 2.672C16.438 23.609 13.97 23.969 11 24c-2.969-.031-5.438-.39-7.406-1.078-2-.719-3.031-1.61-3.094-2.672v-4.031z" fill="#1D53C0"/></svg><svg fill="none" viewBox="0 0 16 13" id="eye" xmlns="http://www.w3.org/2000/svg"><path d="M7.986.375c1.112.018 2.106.237 2.98.656.876.42 1.641.94 2.298 1.559a10.498 10.498 0 011.586 1.86c.419.637.738 1.211.957 1.722a.821.821 0 010 .656c-.22.51-.538 1.085-.957 1.723a10.5 10.5 0 01-1.586 1.86 8.95 8.95 0 01-2.297 1.558c-.875.419-1.869.638-2.98.656-1.113-.018-2.106-.237-2.981-.656a8.949 8.949 0 01-2.297-1.559 10.498 10.498 0 01-1.586-1.86c-.42-.637-.73-1.211-.93-1.722a.822.822 0 010-.656c.2-.51.51-1.085.93-1.723.42-.638.948-1.258 1.586-1.86a8.946 8.946 0 012.297-1.558C5.88.612 6.874.393 7.986.375zM4.05 6.5c0 .71.173 1.367.52 1.969a3.949 3.949 0 001.449 1.449 3.98 3.98 0 003.938 0 3.947 3.947 0 001.448-1.45c.347-.6.52-1.257.52-1.968 0-.71-.173-1.367-.52-1.969a3.947 3.947 0 00-1.449-1.449 3.976 3.976 0 00-1.969-.52c-.692 0-1.349.174-1.968.52a3.947 3.947 0 00-1.45 1.45 3.877 3.877 0 00-.52 1.968zm3.937-1.75c0-.2-.027-.383-.082-.547-.036-.182.028-.292.192-.328a2.775 2.775 0 011.531.574c.438.347.738.802.902 1.367.164.73.073 1.395-.273 1.997-.347.601-.875 1.011-1.586 1.23-.73.164-1.395.073-1.996-.273-.602-.347-1.012-.875-1.23-1.586a2.182 2.182 0 01-.083-.575c.037-.164.146-.227.328-.191.165.055.347.082.547.082.493-.018.903-.191 1.23-.52.329-.328.502-.738.52-1.23z" fill="#737580"/></svg><svg fill="none" viewBox="0 0 22 24" id="flag" xmlns="http://www.w3.org/2000/svg"><path d="M3.5 1.5v.75l3.234-.797c1.844-.437 3.625-.25 5.344.563a7.388 7.388 0 003.422.843c1.188 0 2.344-.28 3.469-.843l.422-.235c.53-.218 1-.187 1.406.094.437.25.672.656.703 1.219v11.625c-.031.656-.36 1.125-.984 1.406l-1.594.61c-2.281.812-4.5.687-6.656-.376-1.844-.875-3.766-1.078-5.766-.609l-3 .75v6c0 .438-.14.797-.422 1.078C2.797 23.86 2.438 24 2 24c-.438 0-.797-.14-1.078-.422C.64 23.297.5 22.938.5 22.5v-21C.5 1.062.64.703.922.422 1.203.14 1.562 0 2 0c.438 0 .797.14 1.078.422.281.281.422.64.422 1.078z" fill="#1D53C0"/></svg><svg viewBox="0 0 16 16" id="log-in" xmlns="http://www.w3.org/2000/svg"><path d="M14 8c-.042-1.708-.625-3.125-1.75-4.25S9.708 2.042 8 2a.973.973 0 01-.719-.281A.973.973 0 017 1c0-.292.094-.531.281-.719A.973.973 0 018 0c1.5.02 2.844.385 4.031 1.094a7.925 7.925 0 012.875 2.875C15.615 5.156 15.98 6.5 16 8c-.02 1.5-.385 2.844-1.094 4.031a7.924 7.924 0 01-2.875 2.875C10.844 15.615 9.5 15.98 8 16a.974.974 0 01-.719-.281A.974.974 0 017 15c0-.292.094-.531.281-.719A.974.974 0 018 14c1.708-.042 3.125-.625 4.25-1.75S13.958 9.708 14 8zM7.219 3.781l3.5 3.5c.187.209.281.448.281.719 0 .27-.094.51-.281.719l-3.5 3.5a1.043 1.043 0 01-.719.281c-.27 0-.51-.094-.719-.281A1.043 1.043 0 015.5 11.5c0-.27.094-.51.281-.719L7.594 9H1a.973.973 0 01-.719-.281A.973.973 0 010 8c0-.292.094-.531.281-.719A.973.973 0 011 7h6.594L5.78 5.219A1.043 1.043 0 015.5 4.5c0-.27.094-.51.281-.719.209-.187.448-.281.719-.281.27 0 .51.094.719.281z"/></svg><svg fill="none" viewBox="0 0 147 54" id="logo" xmlns="http://www.w3.org/2000/svg"><g clip-path="url(#alclip0_52_2706)"><path d="M5.975 48.545c-1.492 0-2.486-.978-2.819-2.608L.172 34.204a2.73 2.73 0 01-.166-1.14A1.485 1.485 0 01.67 31.76a2.038 2.038 0 011.493-.49 1.767 1.767 0 011.36.38 1.73 1.73 0 01.63 1.25l2.32 10.755L9.456 32.9a2.14 2.14 0 01.852-1.245c.427-.3.95-.436 1.47-.385 1.327 0 2.156.489 2.322 1.63l3.15 10.755 2.155-10.43c.331-1.305.995-1.955 2.155-1.955a2.01 2.01 0 011.453.455c.405.337.657.817.703 1.337 0 .326-.166.815-.166 1.141l-3.316 11.734a4.363 4.363 0 01-.83 1.955 3.736 3.736 0 01-2.155.65 3.007 3.007 0 01-1.763-.601 2.945 2.945 0 01-1.056-1.517l-2.651-9.776L9.126 46.1c-.498 1.63-1.493 2.445-3.15 2.445zM37.311 31.27a2.878 2.878 0 011.883.521c.546.388.936.954 1.1 1.598l4.81 12.221c.165.363.276.747.33 1.141a2 2 0 01-.663 1.304 2.705 2.705 0 01-1.492.489 2.614 2.614 0 01-1.443-.54 2.563 2.563 0 01-.878-1.253l-.663-2.118H33.83L33 46.752c-.332 1.141-.995 1.793-1.99 1.793a2.057 2.057 0 01-1.492-.49 1.832 1.832 0 01-.497-1.303 2.38 2.38 0 01.166-1.14l4.808-11.897c.663-1.63 1.824-2.444 3.316-2.444zm-.166 4.074l-2.156 6.03h4.145l-1.99-6.03zm15.585-1.303c0-1.793.663-2.77 2.155-2.77 1.327 0 1.99.977 1.99 2.77v10.755h3.647c1.99 0 2.984.489 2.984 1.792 0 1.141-.994 1.63-2.984 1.63H55.55a3.466 3.466 0 01-2.156-.489 1.998 1.998 0 01-.663-1.792l-.001-11.896zm22.05 11.734c0 1.792-.663 2.77-2.155 2.77-1.327 0-1.99-.977-1.99-2.77V34.04c0-1.792.663-2.77 1.99-2.77 1.492 0 2.155.978 2.155 2.77v11.734zm8.29-5.867a8.971 8.971 0 012.321-6.193 8.785 8.785 0 012.979-1.879 8.87 8.87 0 013.488-.565 9 9 0 013.573.543 8.91 8.91 0 013.059 1.901c1.658 1.63 2.322 3.586 2.322 6.193a8.239 8.239 0 01-.514 3.334 8.297 8.297 0 01-1.808 2.859 8.912 8.912 0 01-3.06 1.901 9.002 9.002 0 01-3.572.543 8.865 8.865 0 01-3.487-.565 8.781 8.781 0 01-2.979-1.879 8.97 8.97 0 01-2.322-6.193zm4.476 0a5.282 5.282 0 00.995 3.422c.371.524.87.947 1.448 1.232a3.92 3.92 0 001.868.398 4.016 4.016 0 001.954-.37 3.965 3.965 0 001.529-1.26 6.394 6.394 0 000-6.844 3.964 3.964 0 00-1.528-1.26 4.017 4.017 0 00-1.955-.37 3.727 3.727 0 00-1.88.374 3.674 3.674 0 00-1.436 1.256 5.282 5.282 0 00-.995 3.422zm23.875-4.889a10.54 10.54 0 01-2.818-.163c-1.161-.163-1.824-.65-1.824-1.63 0-1.14.995-1.792 2.984-1.792h7.458c1.99 0 2.984.65 2.984 1.792 0 .978-.663 1.467-1.657 1.63-.984.177-1.987.232-2.985.163v10.756c0 1.792-.663 2.77-1.99 2.77-1.492 0-2.155-.977-2.155-2.77l.003-10.756z" fill="#212126"/><path fill-rule="evenodd" clip-rule="evenodd" d="M115.052 19.634a2.774 2.774 0 01.476-1.56 2.832 2.832 0 011.274-1.033 2.871 2.871 0 013.095.608c.397.393.667.893.776 1.437a2.769 2.769 0 01-.164 1.62 2.82 2.82 0 01-1.049 1.258 2.864 2.864 0 01-1.579.468h-2.829v-2.798zm8.036.026a5.135 5.135 0 00-1.532-3.634 5.27 5.27 0 00-3.68-1.515 5.2 5.2 0 00-2.435.606 5.318 5.318 0 011.144-1.653 5.369 5.369 0 012.735-1.437 5.41 5.41 0 013.083.302 5.333 5.333 0 012.396 1.94c.588.866.903 1.884.906 2.926v5.281l-3.465-.017a5.055 5.055 0 00.848-2.8zm4.939 2.816v-5.28a7.49 7.49 0 00-1.118-3.95 7.62 7.62 0 00-3.041-2.794 7.738 7.738 0 00-7.972.59 8.008 8.008 0 011.449-1.95 7.974 7.974 0 014.064-2.14 8.038 8.038 0 014.584.447 7.925 7.925 0 013.561 2.884 7.785 7.785 0 011.342 4.35l.008 9.166c.001.334.023.667.065.998a7.57 7.57 0 002.555 4.692 7.749 7.749 0 005.05 1.88 7.69 7.69 0 004.46-1.416 8.12 8.12 0 01-1.441 1.95 7.976 7.976 0 01-4.064 2.14 8.041 8.041 0 01-4.584-.447 7.933 7.933 0 01-3.563-2.883 7.776 7.776 0 01-1.344-4.35l-.011-3.887zm5.204-3.952l3.463.008a5.086 5.086 0 00.51 6.277 5.218 5.218 0 002.956 1.597 5.254 5.254 0 003.327-.529 5.464 5.464 0 01-1.134 1.654 5.368 5.368 0 01-2.737 1.444c-1.035.204-2.11.1-3.086-.3a5.328 5.328 0 01-2.399-1.944 5.224 5.224 0 01-.901-2.931l.001-5.276zm-.018-2.3v-1.588c0-1.33-.264-2.649-.78-3.879a10.131 10.131 0 00-2.224-3.288 10.33 10.33 0 00-7.256-2.969c-1.349 0-2.683.262-3.928.771a10.275 10.275 0 00-3.33 2.197 10.073 10.073 0 00-3.006 7.166v8.142c0 1.563.894 1.996 2.193 1.996h10.833v1.589c0 2.688 1.082 5.266 3.006 7.167a10.33 10.33 0 007.257 2.968 10.33 10.33 0 007.256-2.968 10.074 10.074 0 003.006-7.167v-4.993l.007-.016v-3.069a1.931 1.931 0 00-.135-.826 1.968 1.968 0 00-1.194-1.134 2.01 2.01 0 00-.841-.102h-10.864v.004zm7.831 7.944a2.87 2.87 0 01-2.006-.82 2.765 2.765 0 01-.616-3.054 2.837 2.837 0 012.622-1.73h2.834v2.797a2.786 2.786 0 01-.829 1.982 2.86 2.86 0 01-2.005.825z" fill="#1D53C0"/></g><defs><clipPath id="alclip0_52_2706"><path fill="#fff" d="M0 0h146.25v54H0z"/></clipPath></defs></svg><svg fill="none" viewBox="0 0 36 36" id="logo-icon" xmlns="http://www.w3.org/2000/svg"><path fill-rule="evenodd" clip-rule="evenodd" d="M7.69 17.382a1.981 1.981 0 01.34-1.115c.223-.33.54-.587.911-.74a2.053 2.053 0 012.213.436 1.978 1.978 0 01.438 2.187 2.01 2.01 0 01-.75.898c-.335.22-.728.336-1.13.335H7.69v-2.001zm5.747.019a3.673 3.673 0 00-1.096-2.6 3.769 3.769 0 00-2.632-1.082c-.607 0-1.206.149-1.741.433a3.838 3.838 0 012.774-2.21 3.87 3.87 0 012.205.216 3.814 3.814 0 011.713 1.387c.42.62.646 1.348.648 2.093v3.777l-2.478-.012a3.61 3.61 0 00.607-2.002zm3.531 2.014v-3.777a5.36 5.36 0 00-.799-2.825 5.45 5.45 0 00-2.175-1.997 5.535 5.535 0 00-5.7.421 5.727 5.727 0 011.035-1.394 5.703 5.703 0 012.907-1.53 5.747 5.747 0 013.278.32 5.663 5.663 0 012.546 2.062 5.56 5.56 0 01.96 3.111l.006 6.555c0 .238.016.476.046.713A5.413 5.413 0 0020.9 24.43a5.54 5.54 0 003.61 1.343 5.499 5.499 0 003.19-1.012 5.802 5.802 0 01-1.03 1.395 5.705 5.705 0 01-2.907 1.53 5.75 5.75 0 01-3.278-.32 5.669 5.669 0 01-2.547-2.061 5.564 5.564 0 01-.962-3.111l-.008-2.78zm3.722-2.827l2.476.006a3.64 3.64 0 00.365 4.489 3.732 3.732 0 002.114 1.142 3.758 3.758 0 002.38-.378c-.196.44-.47.84-.812 1.182a3.838 3.838 0 01-1.957 1.033c-.74.146-1.51.071-2.207-.215a3.812 3.812 0 01-1.716-1.39 3.738 3.738 0 01-.644-2.096v-3.773zm-.013-1.644v-1.136a7.17 7.17 0 00-.558-2.774 7.244 7.244 0 00-1.59-2.351 7.386 7.386 0 00-5.19-2.123 7.42 7.42 0 00-2.808.551c-.89.364-1.7.898-2.381 1.57A7.202 7.202 0 006 13.807v5.823c0 1.118.64 1.428 1.568 1.428h7.747v1.136c0 1.922.774 3.765 2.15 5.125a7.385 7.385 0 005.189 2.122 7.384 7.384 0 005.189-2.122 7.202 7.202 0 002.15-5.125v-3.57l.005-.013v-2.194a1.389 1.389 0 00-.434-1.088 1.424 1.424 0 00-1.118-.386h-7.769v.002zm5.6 5.68a2.05 2.05 0 01-1.435-.586 2.001 2.001 0 01-.595-1.418 1.98 1.98 0 01.595-1.417 2.029 2.029 0 011.435-.587h2.026v2.001a1.99 1.99 0 01-.592 1.418 2.05 2.05 0 01-1.434.59z" fill="#1D53C0"/></svg><svg fill="none" viewBox="0 0 64 64" id="logo_mini" xmlns="http://www.w3.org/2000/svg"><rect width="64" height="64" rx="32" fill="#1D53C0"/><path fill-rule="evenodd" clip-rule="evenodd" d="M19.971 31.279c0-.463.137-.916.398-1.3.26-.386.63-.686 1.063-.863a2.394 2.394 0 012.582.507c.33.328.556.745.647 1.2.091.453.043.924-.137 1.351-.18.428-.485.793-.875 1.049a2.39 2.39 0 01-1.318.39h-2.36V31.28zm6.705.022a4.285 4.285 0 00-1.278-3.032 4.397 4.397 0 00-3.07-1.264 4.34 4.34 0 00-2.032.506 4.45 4.45 0 01.954-1.38 4.477 4.477 0 012.282-1.198 4.515 4.515 0 012.572.252 4.45 4.45 0 012 1.618c.49.723.753 1.572.755 2.441v4.406l-2.891-.014a4.212 4.212 0 00.708-2.335zm4.12 2.35v-4.407a6.253 6.253 0 00-.932-3.295 6.357 6.357 0 00-2.537-2.33 6.457 6.457 0 00-6.651.491c.317-.6.725-1.148 1.208-1.626a6.655 6.655 0 013.39-1.786 6.706 6.706 0 013.825.373 6.606 6.606 0 012.971 2.406 6.49 6.49 0 011.12 3.63l.007 7.647c0 .278.019.556.054.833a6.313 6.313 0 002.132 3.915 6.463 6.463 0 004.213 1.567 6.416 6.416 0 003.72-1.18 6.767 6.767 0 01-1.201 1.626 6.655 6.655 0 01-3.39 1.785 6.707 6.707 0 01-3.825-.372 6.614 6.614 0 01-2.973-2.405 6.49 6.49 0 01-1.122-3.63l-.008-3.243zm4.342-3.298l2.89.007a4.247 4.247 0 00-.697 2.69 4.26 4.26 0 001.122 2.547 4.354 4.354 0 002.466 1.332c.95.162 1.926.006 2.776-.441-.227.513-.548.98-.947 1.38a4.477 4.477 0 01-2.282 1.204 4.51 4.51 0 01-2.576-.25 4.448 4.448 0 01-2.001-1.621 4.36 4.36 0 01-.752-2.446l.001-4.402zm-.014-1.918v-1.326c0-1.11-.221-2.21-.652-3.236a8.45 8.45 0 00-1.855-2.743 8.617 8.617 0 00-6.054-2.477 8.654 8.654 0 00-3.277.643 8.572 8.572 0 00-2.778 1.833A8.402 8.402 0 0018 27.108V33.9c0 1.305.746 1.666 1.83 1.666h9.038v1.326c0 2.242.902 4.393 2.508 5.979a8.616 8.616 0 006.054 2.476 8.61 8.61 0 006.053-2.476 8.403 8.403 0 002.509-5.98v-4.165l.006-.014v-2.56a1.62 1.62 0 00-.507-1.27 1.663 1.663 0 00-1.304-.45h-9.063v.003zm6.533 6.627a2.391 2.391 0 01-1.674-.685 2.334 2.334 0 01-.694-1.653 2.31 2.31 0 01.694-1.654 2.367 2.367 0 011.674-.684h2.364v2.334c0 .62-.249 1.215-.692 1.654a2.383 2.383 0 01-1.672.688z" fill="#fff"/></svg><svg fill="none" viewBox="0 0 16 16" id="mail" xmlns="http://www.w3.org/2000/svg"><path d="M2.313 2.75h11.374c.365.018.675.146.93.383.237.255.365.565.383.93-.018.437-.191.783-.52 1.039L8.52 9.586c-.347.219-.693.219-1.04 0L1.52 5.102c-.33-.256-.502-.602-.52-1.04a1.43 1.43 0 01.383-.93 1.43 1.43 0 01.93-.382zM1 5.813l5.96 4.457c.31.237.657.355 1.04.355s.73-.118 1.04-.355L15 5.813V11.5c-.018.492-.191.902-.52 1.23-.328.329-.738.502-1.23.52H2.75c-.492-.018-.902-.191-1.23-.52-.329-.328-.502-.738-.52-1.23V5.812z" fill="#1D53C0"/></svg><svg fill="none" viewBox="0 0 18 16" id="map-mark" xmlns="http://www.w3.org/2000/svg"><path d="M12.75 3.868c-.02.583-.23 1.26-.625 2.031-.396.771-.854 1.521-1.375 2.25-.5.709-.927 1.281-1.281 1.719a.592.592 0 01-.469.219.592.592 0 01-.469-.22A33.705 33.705 0 017.25 8.15C6.73 7.42 6.27 6.67 5.875 5.9c-.396-.77-.604-1.448-.625-2.031.02-1.063.385-1.948 1.094-2.656C7.052.503 7.937.139 9 .118c1.063.02 1.948.385 2.656 1.094.709.708 1.073 1.593 1.094 2.656zm.25 2.5l.313-.625V5.68c.02-.02.03-.041.03-.062L16.97 4.18c.27-.104.5-.083.687.063a.797.797 0 01.344.625v8.469c-.02.333-.177.562-.469.687L13 15.837v-9.47zM4.312 4.43c.084.459.209.896.375 1.313L5 6.368v7.875l-3.969 1.594c-.27.083-.5.052-.687-.094-.209-.125-.323-.333-.344-.625V6.68a.807.807 0 01.469-.718L4.313 4.43zm5.938 6.063c.48-.583 1.063-1.386 1.75-2.406v7.78L6 14.15V8.087c.688 1.02 1.27 1.823 1.75 2.406.354.396.77.594 1.25.594s.896-.198 1.25-.594zM9 4.868c.48-.02.844-.23 1.094-.625a1.328 1.328 0 000-1.25c-.25-.396-.615-.604-1.094-.625-.48.02-.844.23-1.094.625a1.328 1.328 0 000 1.25c.25.396.615.604 1.094.625z" fill="#1D53C0"/></svg><svg fill="none" viewBox="0 0 16 16" id="phone" xmlns="http://www.w3.org/2000/svg"><path d="M5.512 1.684l1.093 2.625c.165.492.055.911-.328 1.257L4.937 6.66a9.488 9.488 0 001.805 2.598 9.488 9.488 0 002.598 1.805l1.094-1.34c.346-.383.765-.493 1.257-.328l2.625 1.093c.274.11.465.283.575.52.109.255.136.52.082.793l-.657 2.406c-.182.492-.537.756-1.066.793-2.279-.018-4.339-.574-6.18-1.668A12.422 12.422 0 012.668 8.93C1.574 7.089 1.018 5.029 1 2.75c.036-.529.3-.884.793-1.066l2.406-.657c.274-.054.538-.027.793.082.237.11.41.301.52.575z" fill="#1D53C0"/></svg><svg fill="none" viewBox="0 0 12 14" id="play" xmlns="http://www.w3.org/2000/svg"><path d="M2.281.219l9 5.5c.459.312.698.74.719 1.281-.02.563-.26.99-.719 1.281l-9 5.5c-.5.292-1 .302-1.5.031-.5-.291-.76-.729-.781-1.312v-11C.02.917.281.48.781.188c.5-.271 1-.26 1.5.03z" fill="#fff"/></svg><svg fill="none" viewBox="0 0 30 24" id="robot" xmlns="http://www.w3.org/2000/svg"><path d="M15 0c.438 0 .797.14 1.078.422.281.281.422.64.422 1.078v3h5.625c.969.031 1.766.36 2.39.984.626.625.954 1.422.985 2.391v12.75c-.031.969-.36 1.766-.984 2.39-.625.626-1.422.954-2.391.985H7.875c-.969-.031-1.766-.36-2.39-.984-.626-.625-.954-1.422-.985-2.391V7.875c.031-.969.36-1.766.984-2.39.625-.626 1.422-.954 2.391-.985H13.5v-3c0-.438.14-.797.422-1.078C14.203.14 14.562 0 15 0zM9.75 18c-.469.031-.719.281-.75.75.031.469.281.719.75.75h1.5c.469-.031.719-.281.75-.75-.031-.469-.281-.719-.75-.75h-1.5zm4.5 0c-.469.031-.719.281-.75.75.031.469.281.719.75.75h1.5c.469-.031.719-.281.75-.75-.031-.469-.281-.719-.75-.75h-1.5zm4.5 0c-.469.031-.719.281-.75.75.031.469.281.719.75.75h1.5c.469-.031.719-.281.75-.75-.031-.469-.281-.719-.75-.75h-1.5zm-6.375-6c-.031-.719-.344-1.266-.938-1.64-.624-.313-1.25-.313-1.874 0-.594.374-.907.921-.938 1.64.031.719.344 1.266.938 1.64.624.313 1.25.313 1.874 0 .594-.374.907-.921.938-1.64zm7.125 1.875c.719-.031 1.266-.344 1.64-.938.313-.624.313-1.25 0-1.874-.374-.594-.921-.907-1.64-.938-.719.031-1.266.344-1.64.938-.313.624-.313 1.25 0 1.874.374.594.921.907 1.64.938zM2.25 10.5H3v9h-.75a2.446 2.446 0 01-1.594-.656A2.447 2.447 0 010 17.25v-4.5c.031-.625.25-1.156.656-1.594A2.446 2.446 0 012.25 10.5zm25.5 0c.625.031 1.156.25 1.594.656.406.438.625.969.656 1.594v4.5a2.446 2.446 0 01-.656 1.594 2.446 2.446 0 01-1.594.656H27v-9h.75z" fill="#1D53C0"/></svg><svg fill="none" viewBox="0 0 52 11" id="ruso" xmlns="http://www.w3.org/2000/svg"><g clip-path="url(#atclip0_52_2784)" fill="#7A7D80"><path d="M13.424 6.353V.252h2.191v6.025c0 1.415.823 2.388 2.39 2.388 1.567 0 2.373-.974 2.373-2.388V.252h2.207v6.086c0 2.526-1.492 4.245-4.58 4.245-3.09 0-4.58-1.735-4.58-4.23zM27.791 8.97l1.17-1.644a4.448 4.448 0 003.227 1.37c1.187 0 1.765-.548 1.765-1.127 0-1.795-5.843-.563-5.843-4.382C28.11 1.5 29.57.1 31.96.1c1.613 0 2.951.486 3.956 1.415l-1.203 1.582c-.82-.76-1.916-1.11-2.951-1.11-.928 0-1.445.41-1.445 1.02 0 1.612 5.827.532 5.827 4.32 0 1.857-1.324 3.257-4.062 3.257-1.947 0-3.347-.655-4.291-1.614zm13.421-3.678C41.212 2.21 43.467 0 46.551 0c3.098 0 5.353 2.209 5.353 5.292 0 3.083-2.255 5.292-5.353 5.292-3.084 0-5.339-2.209-5.339-5.292zm8.452 0c0-1.916-1.227-3.358-3.113-3.358-1.887 0-3.099 1.442-3.099 3.358 0 1.903 1.212 3.36 3.099 3.36 1.886 0 3.113-1.457 3.113-3.36zM5.935 6.535c1.095-.258 2.222-1.217 2.222-3.012 0-1.887-1.293-3.271-3.409-3.271H0v1.901h4.429c.867 0 1.521.517 1.521 1.37 0 .851-.655 1.37-1.521 1.37H0V10.4h2.16V6.795h1.584L5.737 10.4h2.48L5.936 6.535z"/></g><defs><clipPath id="atclip0_52_2784"><path fill="#fff" d="M0 0h52v11H0z"/></clipPath></defs></svg><svg viewBox="0 0 16 16" id="serth" xmlns="http://www.w3.org/2000/svg"><path d="M13 6.5c-.02 1.458-.438 2.74-1.25 3.844l3.969 3.937c.187.209.281.448.281.719 0 .27-.094.51-.281.719A1.044 1.044 0 0115 16c-.27 0-.51-.094-.719-.281l-3.937-3.969C9.24 12.563 7.958 12.98 6.5 13c-1.833-.042-3.365-.677-4.594-1.906C.677 9.864.042 8.334 0 6.5c.042-1.833.677-3.365 1.906-4.594C3.136.677 4.666.042 6.5 0c1.833.042 3.365.677 4.594 1.906C12.323 3.136 12.958 4.666 13 6.5zM6.5 11a4.43 4.43 0 002.25-.594 4.51 4.51 0 001.656-1.656A4.543 4.543 0 0011 6.5c0-.792-.198-1.542-.594-2.25A4.51 4.51 0 008.75 2.594 4.431 4.431 0 006.5 2c-.813 0-1.563.198-2.25.594A4.51 4.51 0 002.594 4.25 4.543 4.543 0 002 6.5c0 .792.198 1.542.594 2.25a4.51 4.51 0 001.656 1.656A4.43 4.43 0 006.5 11z"/></svg><svg fill="none" viewBox="0 0 24 24" id="speed" xmlns="http://www.w3.org/2000/svg"><path d="M12 0c2.25.031 4.266.578 6.047 1.64a11.888 11.888 0 014.312 4.313C23.422 7.734 23.97 9.75 24 12c-.031 2.25-.578 4.266-1.64 6.047a11.888 11.888 0 01-4.313 4.312C16.266 23.422 14.25 23.97 12 24c-2.25-.031-4.266-.578-6.047-1.64a11.888 11.888 0 01-4.312-4.313C.578 16.266.03 14.25 0 12c0-1.688.328-3.266.984-4.734.625-1.47 1.5-2.75 2.625-3.844A1.564 1.564 0 014.688 3c.375 0 .718.156 1.03.469.282.312.423.656.423 1.031 0 .406-.141.766-.422 1.078C3.969 7.266 3.062 9.406 3 12c.063 2.563.938 4.688 2.625 6.375C7.313 20.063 9.438 20.938 12 21c2.563-.063 4.688-.938 6.375-2.625C20.063 16.687 20.938 14.562 21 12c-.031-2.281-.75-4.234-2.156-5.86-1.375-1.593-3.157-2.593-5.344-3V4.5c0 .438-.14.797-.422 1.078C12.797 5.86 12.438 6 12 6c-.438 0-.797-.14-1.078-.422-.281-.281-.422-.64-.422-1.078v-3c0-.438.14-.797.422-1.078C11.203.14 11.562 0 12 0zM9.047 7.453l3.75 3.75c.437.531.437 1.063 0 1.594-.531.437-1.063.437-1.594 0l-3.75-3.75c-.437-.531-.437-1.063 0-1.594.531-.437 1.063-.437 1.594 0z" fill="#1D53C0"/></svg><svg fill="none" viewBox="0 0 18 16" id="star" xmlns="http://www.w3.org/2000/svg"><path d="M9.897.562l2 4.125 4.5.687a.984.984 0 01.813.656c.104.396.02.74-.25 1.032l-3.25 3.218.75 4.563c.062.396-.073.719-.407.969-.333.229-.677.25-1.03.062L8.99 13.749l-4 2.125c-.375.187-.73.167-1.063-.063a1.032 1.032 0 01-.406-.968l.781-4.563-3.25-3.218C.762 6.77.678 6.426.803 6.03c.125-.375.386-.593.782-.656l4.5-.687 2-4.125c.208-.355.51-.542.906-.563.416.02.719.208.906.563z" fill="#FFB800"/></svg><svg fill="none" viewBox="0 0 24 22" id="stat" xmlns="http://www.w3.org/2000/svg"><path d="M3 2v15.75c.031.469.281.719.75.75H22.5c.438 0 .797.14 1.078.422.281.281.422.64.422 1.078 0 .438-.14.797-.422 1.078-.281.281-.64.422-1.078.422H3.75c-1.063-.031-1.953-.39-2.672-1.078C.391 19.703.031 18.812 0 17.75V2c0-.438.14-.797.422-1.078C.703.64 1.062.5 1.5.5c.438 0 .797.14 1.078.422C2.86 1.203 3 1.562 3 2zm19.078 4.078l-6 6A1.564 1.564 0 0115 12.5a1.56 1.56 0 01-1.078-.422L11.25 9.36l-4.172 4.22A1.564 1.564 0 016 14a1.56 1.56 0 01-1.078-.422A1.564 1.564 0 014.5 12.5c0-.406.14-.766.422-1.078l5.25-5.25a1.564 1.564 0 011.078-.422c.406 0 .766.14 1.078.422L15 8.89l4.922-4.97A1.564 1.564 0 0121 3.5c.406 0 .766.14 1.078.422.281.312.422.672.422 1.078s-.14.766-.422 1.078z" fill="#1D53C0"/></svg><svg fill="none" viewBox="0 0 24 24" id="telegram" xmlns="http://www.w3.org/2000/svg"><path d="M12 .375C18.422.375 23.625 5.578 23.625 12S18.422 23.625 12 23.625.375 18.422.375 12 5.578.375 12 .375zm5.672 7.969c.187-.75-.281-1.078-.797-.89L5.672 11.765c-.75.28-.75.75-.14.937l2.859.89 6.656-4.218c.328-.188.61-.047.375.14l-5.39 4.876-.188 2.953c.281 0 .422-.14.562-.282l1.406-1.359 2.907 2.156c.562.282.937.141 1.078-.515l1.875-9z" fill="#1D53C0"/></svg><svg fill="none" viewBox="0 0 16 14" id="telegram_1" xmlns="http://www.w3.org/2000/svg"><path fill-rule="evenodd" clip-rule="evenodd" d="M12.256 13.519c.215.152.491.19.738.097a.774.774 0 00.483-.56c.579-2.723 1.984-9.614 2.512-12.09a.52.52 0 00-.174-.506.534.534 0 00-.531-.094C12.489 1.401 3.88 4.631.362 5.933A.551.551 0 000 6.466c.008.236.167.44.396.509 1.578.472 3.649 1.129 3.649 1.129s.968 2.923 1.472 4.41c.064.186.21.333.402.384a.578.578 0 00.541-.139l2.064-1.948s2.381 1.746 3.732 2.708zm-7.34-5.785l1.12 3.692.248-2.338 6.79-6.124a.185.185 0 00.022-.251.19.19 0 00-.25-.043l-7.93 5.064z" fill="#212126"/></svg><svg fill="none" viewBox="0 0 30 24" id="truck" xmlns="http://www.w3.org/2000/svg"><path d="M15.994 4.631H0v7.463h15.994V4.63zM11.213.075H4.8v3.019h6.413V.075zM7.8 23.925a3.375 3.375 0 100-6.75 3.375 3.375 0 000 6.75zm17.026 0a3.375 3.375 0 100-6.75 3.375 3.375 0 000 6.75z" fill="#fff"/><path d="M24.825 15.506a5.009 5.009 0 014.294 2.438A52.76 52.76 0 0030 11.7c-.15-.694-4.65-8.194-4.65-8.194h-7.744v10.125H0v5.963h2.85a5.024 5.024 0 019.9 0h7.125a5.044 5.044 0 014.95-4.088zm-4.762-9.525h3.9l2.943 5.175h-6.843V5.981z" fill="#fff"/></svg><svg fill="none" viewBox="0 0 24 22" id="uptime" xmlns="http://www.w3.org/2000/svg"><path d="M6.703 5.703c-.812.844-1.406 1.781-1.781 2.813a1.654 1.654 0 01-.75.843A1.677 1.677 0 013 9.406a1.654 1.654 0 01-.844-.75 1.677 1.677 0 01-.047-1.172c.5-1.437 1.329-2.734 2.485-3.89C5.969 2.219 7.547 1.297 9.328.828a10.852 10.852 0 015.297 0c1.781.438 3.36 1.344 4.734 2.719l1.97-1.969c.374-.344.78-.422 1.218-.234.437.187.672.531.703 1.031v6c-.063.688-.438 1.063-1.125 1.125h-6c-.5-.031-.844-.266-1.031-.703-.188-.438-.11-.844.234-1.219l1.922-1.922C15.719 4.22 13.953 3.5 11.953 3.5c-1.969 0-3.719.734-5.25 2.203zM.75 13.625c.063-.688.438-1.063 1.125-1.125h6c.5.031.844.266 1.031.703.188.438.11.844-.234 1.219L6.75 16.344c1.531 1.437 3.297 2.156 5.297 2.156 1.969 0 3.719-.734 5.25-2.203.844-.813 1.437-1.75 1.781-2.813.156-.375.406-.656.75-.843A1.677 1.677 0 0121 12.594c.375.156.656.406.844.75.187.375.203.765.047 1.172-.5 1.437-1.328 2.734-2.485 3.89-1.375 1.375-2.953 2.297-4.734 2.766-1.75.437-3.516.437-5.297 0-1.781-.438-3.36-1.344-4.734-2.719l-1.97 1.969c-.374.344-.78.422-1.218.234-.437-.187-.672-.531-.703-1.031v-6z" fill="#1D53C0"/></svg><svg fill="none" viewBox="0 0 14 16" id="user" xmlns="http://www.w3.org/2000/svg"><path d="M7 8c-.73 0-1.396-.177-2-.531A4.134 4.134 0 013.531 6 3.993 3.993 0 013 4c0-.708.177-1.375.531-2A4.134 4.134 0 015 .531 3.882 3.882 0 017 0c.73 0 1.396.177 2 .531A4.134 4.134 0 0110.469 2c.354.625.531 1.292.531 2s-.177 1.375-.531 2A4.134 4.134 0 019 7.469 3.882 3.882 0 017 8zM5.562 9.5h2.875c1.563.042 2.876.583 3.938 1.625 1.042 1.063 1.583 2.375 1.625 3.938 0 .27-.094.49-.281.656a.836.836 0 01-.656.281H.937a.836.836 0 01-.656-.281.836.836 0 01-.281-.656c.042-1.563.583-2.876 1.625-3.938C2.688 10.083 4 9.542 5.563 9.5z" fill="#212126"/></svg><svg fill="none" viewBox="0 0 16 16" id="whatsapp" xmlns="http://www.w3.org/2000/svg"><path d="M.038 16l1.125-4.109A7.911 7.911 0 01.105 7.927C.107 3.557 3.663 0 8.033 0c2.121 0 4.112.827 5.609 2.325a7.882 7.882 0 012.32 5.61c-.002 4.371-3.559 7.928-7.929 7.928a7.934 7.934 0 01-3.792-.966L.038 16zm4.398-2.538c1.117.663 2.184 1.06 3.595 1.061a6.602 6.602 0 006.592-6.59A6.588 6.588 0 008.036 1.34a6.6 6.6 0 00-6.593 6.589c0 1.483.434 2.594 1.164 3.756l-.666 2.432 2.495-.654zm7.591-3.643c-.049-.082-.181-.132-.38-.231-.198-.1-1.172-.579-1.354-.645-.181-.066-.313-.099-.446.1-.132.198-.512.644-.627.776-.115.132-.231.149-.43.05-.197-.1-.836-.308-1.593-.984a5.963 5.963 0 01-1.102-1.372c-.115-.198-.012-.306.087-.404.09-.089.198-.232.297-.348.101-.114.134-.197.2-.33.066-.132.034-.248-.016-.347-.05-.099-.446-1.074-.611-1.47-.161-.387-.325-.335-.446-.34l-.38-.007a.726.726 0 00-.528.248c-.181.198-.693.677-.693 1.652 0 .976.71 1.918.808 2.05.1.132 1.397 2.133 3.384 2.991.473.204.842.326 1.13.417.474.151.906.13 1.248.079.38-.057 1.172-.48 1.337-.942.165-.463.165-.86.115-.943z" fill="#212126"/></svg><svg fill="none" viewBox="0 0 22 24" id="worker" xmlns="http://www.w3.org/2000/svg"><path d="M10.625 0h.75c.688.063 1.063.438 1.125 1.125V3.75l1.313-2.672a6.21 6.21 0 012.203 2.016A6.32 6.32 0 0117 6c.688.063 1.063.438 1.125 1.125-.063.688-.438 1.063-1.125 1.125H5c-.688-.063-1.063-.438-1.125-1.125C3.938 6.437 4.313 6.062 5 6a6.32 6.32 0 01.984-2.906 6.21 6.21 0 012.204-2.016L9.5 3.75V1.125C9.563.437 9.938.062 10.625 0zM11 15c-1.563-.031-2.89-.531-3.984-1.5-1.094-1-1.75-2.25-1.97-3.75h11.907c-.219 1.5-.875 2.75-1.969 3.75-1.093.969-2.421 1.469-3.984 1.5zm-4.219 1.5h8.438c1.781.031 3.265.64 4.453 1.828 1.187 1.188 1.797 2.672 1.828 4.453-.063.75-.469 1.157-1.219 1.219H1.72C.969 23.937.562 23.531.5 22.781c.031-1.781.64-3.265 1.828-4.453C3.516 17.141 5 16.531 6.781 16.5z" fill="#1D53C0"/></svg><svg fill="none" viewBox="0 0 10 10" id="xmark" xmlns="http://www.w3.org/2000/svg"><path d="M9.719 1.719L6.406 5 9.72 8.281c.186.209.28.449.28.719 0 .27-.094.51-.281.719A1.043 1.043 0 019 10c-.27 0-.51-.094-.719-.281L5 6.406 1.719 9.72A1.043 1.043 0 011 10c-.27 0-.51-.094-.719-.281A1.043 1.043 0 010 9c0-.27.094-.51.281-.719L3.594 5 .28 1.719A1.043 1.043 0 010 1C0 .73.094.49.281.281.49.094.73 0 1 0c.27 0 .51.094.719.281L5 3.594 8.281.28C8.49.094 8.73 0 9 0c.27 0 .51.094.719.281C9.906.49 10 .73 10 1c0 .27-.094.51-.281.719z" fill="#D92B2B"/></svg></svg>