<svg width="24" height="24" viewBox="0 0 24 24" xmlns="http://www.w3.org/2000/svg">
	<path d="M12.7188 15.2188C12.5104 15.4062 12.2708 15.5 12 15.5C11.7292 15.5 11.4896 15.4062 11.2812 15.2188L6.28125 10.2188C6.09375 10.0104 6 9.77083 6 9.5C6 9.22917 6.09375 8.98958 6.28125 8.78125C6.48958 8.59375 6.72917 8.5 7 8.5C7.27083 8.5 7.51042 8.59375 7.71875 8.78125L12 13.0938L16.2812 8.78125C16.4896 8.59375 16.7292 8.5 17 8.5C17.2708 8.5 17.5104 8.59375 17.7188 8.78125C17.9062 8.98958 18 9.22917 18 9.5C18 9.77083 17.9062 10.0104 17.7188 10.2188L12.7188 15.2188Z" />
</svg>
