<svg width="8" height="12" viewBox="0 0 8 12" fill="none" xmlns="http://www.w3.org/2000/svg">
<path d="M0.78125 6.71875C0.59375 6.51042 0.5 6.27083 0.5 6C0.5 5.72917 0.59375 5.48958 0.78125 5.28125L5.78125 0.28125C5.98958 0.09375 6.22917 0 6.5 0C6.77083 0 7.01042 0.09375 7.21875 0.28125C7.40625 0.489583 7.5 0.729167 7.5 1C7.5 1.27083 7.40625 1.51042 7.21875 1.71875L2.90625 6L7.21875 10.2812C7.40625 10.4896 7.5 10.7292 7.5 11C7.5 11.2708 7.40625 11.5104 7.21875 11.7188C7.01042 11.9062 6.77083 12 6.5 12C6.22917 12 5.98958 11.9062 5.78125 11.7188L0.78125 6.71875Z" fill="#212126"/>
</svg>
