<svg width="10" height="10" viewBox="0 0 10 10" fill="none" xmlns="http://www.w3.org/2000/svg">
<path d="M10 0.966387V6.73834C9.98599 7.00445 9.88795 7.22854 9.70588 7.41061C9.52381 7.59269 9.29972 7.69073 9.03361 7.70473C8.76751 7.69073 8.54342 7.59269 8.36134 7.41061C8.17927 7.22854 8.08123 7.00445 8.06723 6.73834L8.08824 3.2563L1.63866 9.70588C1.44258 9.90196 1.21849 10 0.966387 10C0.714286 10 0.490196 9.90196 0.294118 9.70588C0.0980392 9.5098 0 9.28571 0 9.03361C0 8.78151 0.0980392 8.55742 0.294118 8.36134L6.7437 1.91176L3.26166 1.93277C2.99555 1.91877 2.77146 1.82073 2.58939 1.63866C2.40731 1.45658 2.30928 1.23249 2.29527 0.966387C2.30928 0.70028 2.40731 0.47619 2.58939 0.294118C2.77146 0.112045 2.99555 0.0140056 3.26166 0H9.03361C9.29972 0.0140056 9.52381 0.112045 9.70588 0.294118C9.88795 0.47619 9.98599 0.70028 10 0.966387Z" fill="white"/>
</svg>
