<svg width="14" height="15" viewBox="0 0 14 15" fill="none" xmlns="http://www.w3.org/2000/svg">
<path d="M7 0.5C8.27604 0.518229 9.44271 0.828125 10.5 1.42969C11.5573 2.04948 12.4141 2.90625 13.0703 4C13.6901 5.11198 14 6.27865 14 7.5C14 8.72135 13.6901 9.88802 13.0703 11C12.4141 12.0938 11.5573 12.9505 10.5 13.5703C9.44271 14.1719 8.27604 14.4818 7 14.5C5.72396 14.4818 4.55729 14.1719 3.5 13.5703C2.44271 12.9505 1.58594 12.0938 0.929688 11C0.309896 9.88802 0 8.72135 0 7.5C0 6.27865 0.309896 5.11198 0.929688 4C1.58594 2.90625 2.44271 2.04948 3.5 1.42969C4.55729 0.828125 5.72396 0.518229 7 0.5ZM6.34375 3.78125V7.5C6.34375 7.73698 6.44401 7.91927 6.64453 8.04688L9.26953 9.79688C9.61589 9.9974 9.91667 9.93359 10.1719 9.60547C10.3724 9.25911 10.3086 8.95833 9.98047 8.70312L7.65625 7.14453V3.78125C7.61979 3.38021 7.40104 3.16146 7 3.125C6.59896 3.16146 6.38021 3.38021 6.34375 3.78125Z" fill="#737580"/>
</svg>
