<svg width="14" height="15" fill="none" xmlns="http://www.w3.org/2000/svg"><path d="M7 .5c1.276.018 2.443.328 3.5.93A7.232 7.232 0 0113.07 4c.62 1.112.93 2.279.93 3.5s-.31 2.388-.93 3.5a7.232 7.232 0 01-2.57 2.57c-1.057.602-2.224.912-3.5.93-1.276-.018-2.443-.328-3.5-.93A7.232 7.232 0 01.93 11C.31 9.888 0 8.721 0 7.5S.31 5.112.93 4A7.232 7.232 0 013.5 1.43C4.557.828 5.724.518 7 .5zm-.656 3.281V7.5c0 .237.1.42.3.547l2.626 1.75c.346.2.647.137.902-.192.2-.346.137-.647-.192-.902L7.656 7.145V3.78c-.036-.4-.255-.62-.656-.656-.401.036-.62.255-.656.656z" fill="#737580"/></svg>