<svg width="30" height="22" fill="none" xmlns="http://www.w3.org/2000/svg"><path d="M6.75 21.5c-1.906-.063-3.5-.719-4.781-1.969C.719 18.25.062 16.656 0 14.75c.031-1.5.453-2.813 1.266-3.938.812-1.124 1.89-1.937 3.234-2.437V8c.063-2.125.797-3.89 2.203-5.297C8.11 1.297 9.875.563 12 .5c1.406.031 2.672.375 3.797 1.031a8.08 8.08 0 012.719 2.719c.718-.5 1.547-.75 2.484-.75 1.281.031 2.344.469 3.188 1.313.843.843 1.28 1.906 1.312 3.187 0 .563-.094 1.11-.281 1.64 1.375.282 2.515.97 3.422 2.063.875 1.063 1.328 2.328 1.359 3.797-.031 1.688-.61 3.11-1.734 4.266C27.109 20.89 25.688 21.469 24 21.5H6.75zM15 6.5c-.688.063-1.063.438-1.125 1.125v5.25c.063.688.438 1.063 1.125 1.125.688-.063 1.063-.438 1.125-1.125v-5.25C16.062 6.937 15.687 6.562 15 6.5zM16.5 17c0-.438-.14-.797-.422-1.078-.281-.281-.64-.422-1.078-.422-.438 0-.797.14-1.078.422-.281.281-.422.64-.422 1.078 0 .438.14.797.422 1.078.281.281.64.422 1.078.422.438 0 .797-.14 1.078-.422.281-.281.422-.64.422-1.078z" fill="#1D53C0"/></svg>