<svg width="30" height="22" fill="none" xmlns="http://www.w3.org/2000/svg"><path d="M27.712 18.181l-5.85-5.85 7.126-7.125V.256H13.125V2.62h3.75v2.587H2.887L0 6.688l1.087 2.1 2.382-1.22h2.7v2.345H4.294L.356 11.956l1.875 3.488a4.556 4.556 0 017.613 1.425h3.75a4.575 4.575 0 014.35-3.225 4.518 4.518 0 012.775.956l5.981 6H30v-2.419h-2.288zM26.606 2.62v1.61L21.92 8.938v-6.32h4.687z" fill="#fff"/><path d="M5.624 15.332a3.205 3.205 0 103.207 3.206 3.225 3.225 0 00-3.207-3.207zm12.358 0a3.206 3.206 0 103.224 3.206 3.225 3.225 0 00-3.224-3.207z" fill="#fff"/></svg>