<svg width="22" height="24" fill="none" xmlns="http://www.w3.org/2000/svg"><path d="M21.5 3.75V6c-.063 1.063-1.094 1.953-3.094 2.672C16.438 9.359 13.97 9.719 11 9.75c-2.969-.031-5.438-.39-7.406-1.078C1.594 7.953.563 7.062.5 6V3.75c.063-1.063 1.094-1.953 3.094-2.672C5.563.391 8.03.031 11 0c2.969.031 5.438.39 7.406 1.078 2 .719 3.032 1.61 3.094 2.672zm-2.578 6.328c1-.344 1.86-.797 2.578-1.36V13.5c-.063 1.063-1.094 1.953-3.094 2.672-1.968.687-4.437 1.047-7.406 1.078-2.969-.031-5.438-.39-7.406-1.078-2-.719-3.031-1.61-3.094-2.672V8.719c.719.562 1.578 1.015 2.578 1.36 2.188.75 4.828 1.14 7.922 1.171 3.094-.031 5.734-.422 7.922-1.172zM.5 16.218c.719.563 1.578 1.016 2.578 1.36 2.188.75 4.828 1.14 7.922 1.172 3.094-.031 5.734-.422 7.922-1.172 1-.344 1.86-.797 2.578-1.36v4.032c-.063 1.063-1.094 1.953-3.094 2.672C16.438 23.609 13.97 23.969 11 24c-2.969-.031-5.438-.39-7.406-1.078-2-.719-3.031-1.61-3.094-2.672v-4.031z" fill="#1D53C0"/></svg>