<svg width="24" height="24" xmlns="http://www.w3.org/2000/svg">
	<path d="M18 12c-.042-1.708-.625-3.125-1.75-4.25S13.708 6.042 12 6a.974.974 0 01-.719-.281A.974.974 0 0111 5c0-.292.094-.531.281-.719A.974.974 0 0112 4c1.5.02 2.844.385 4.031 1.094a7.925 7.925 0 012.875 2.875C19.615 9.156 19.98 10.5 20 12c-.02 1.5-.385 2.844-1.094 4.031a7.924 7.924 0 01-2.875 2.875C14.844 19.615 13.5 19.98 12 20a.974.974 0 01-.719-.281A.974.974 0 0111 19c0-.292.094-.531.281-.719A.974.974 0 0112 18c1.708-.042 3.125-.625 4.25-1.75S17.958 13.708 18 12zm-6.781-4.219l3.5 3.5c.187.209.281.448.281.719 0 .27-.094.51-.281.719l-3.5 3.5a1.044 1.044 0 01-.719.281c-.27 0-.51-.094-.719-.281A1.043 1.043 0 019.5 15.5c0-.27.094-.51.281-.719L11.594 13H5a.974.974 0 01-.719-.281A.974.974 0 014 12c0-.292.094-.531.281-.719A.974.974 0 015 11h6.594L9.78 9.219A1.043 1.043 0 019.5 8.5c0-.27.094-.51.281-.719.209-.187.448-.281.719-.281.27 0 .51.094.719.281z" />
</svg>
