<svg width="36" height="36" fill="none" xmlns="http://www.w3.org/2000/svg"><path fill-rule="evenodd" clip-rule="evenodd" d="M7.69 17.382a1.981 1.981 0 01.34-1.115c.223-.33.54-.587.911-.74a2.053 2.053 0 012.213.436 1.978 1.978 0 01.438 2.187 2.01 2.01 0 01-.75.898c-.335.22-.728.336-1.13.335H7.69v-2.001zm5.747.019a3.673 3.673 0 00-1.096-2.6 3.769 3.769 0 00-2.632-1.082c-.607 0-1.206.149-1.741.433a3.838 3.838 0 012.774-2.21 3.87 3.87 0 012.205.216 3.814 3.814 0 011.713 1.387c.42.62.646 1.348.648 2.093v3.777l-2.478-.012a3.61 3.61 0 00.607-2.002zm3.531 2.014v-3.777a5.36 5.36 0 00-.799-2.825 5.45 5.45 0 00-2.175-1.997 5.535 5.535 0 00-5.7.421 5.727 5.727 0 011.035-1.394 5.703 5.703 0 012.907-1.53 5.747 5.747 0 013.278.32 5.663 5.663 0 012.546 2.062 5.56 5.56 0 01.96 3.111l.006 6.555c0 .238.016.476.046.713A5.413 5.413 0 0020.9 24.43a5.54 5.54 0 003.61 1.343 5.499 5.499 0 003.19-1.012 5.802 5.802 0 01-1.03 1.395 5.705 5.705 0 01-2.907 1.53 5.75 5.75 0 01-3.278-.32 5.669 5.669 0 01-2.547-2.061 5.564 5.564 0 01-.962-3.111l-.008-2.78zm3.722-2.827l2.476.006a3.64 3.64 0 00.365 4.489 3.732 3.732 0 002.114 1.142 3.758 3.758 0 002.38-.378c-.196.44-.47.84-.812 1.182a3.838 3.838 0 01-1.957 1.033c-.74.146-1.51.071-2.207-.215a3.812 3.812 0 01-1.716-1.39 3.738 3.738 0 01-.644-2.096v-3.773zm-.013-1.644v-1.136a7.17 7.17 0 00-.558-2.774 7.244 7.244 0 00-1.59-2.351 7.386 7.386 0 00-5.19-2.123 7.42 7.42 0 00-2.808.551c-.89.364-1.7.898-2.381 1.57A7.202 7.202 0 006 13.807v5.823c0 1.118.64 1.428 1.568 1.428h7.747v1.136c0 1.922.774 3.765 2.15 5.125a7.385 7.385 0 005.189 2.122 7.384 7.384 0 005.189-2.122 7.202 7.202 0 002.15-5.125v-3.57l.005-.013v-2.194a1.389 1.389 0 00-.434-1.088 1.424 1.424 0 00-1.118-.386h-7.769v.002zm5.6 5.68a2.05 2.05 0 01-1.435-.586 2.001 2.001 0 01-.595-1.418 1.98 1.98 0 01.595-1.417 2.029 2.029 0 011.435-.587h2.026v2.001a1.99 1.99 0 01-.592 1.418 2.05 2.05 0 01-1.434.59z" fill="#1D53C0"/></svg>