<svg width="16" height="16" viewBox="0 0 16 16" fill="none" xmlns="http://www.w3.org/2000/svg">
<path d="M2.3125 2.75H13.6875C14.0521 2.76823 14.362 2.89583 14.6172 3.13281C14.8542 3.38802 14.9818 3.69792 15 4.0625C14.9818 4.5 14.8086 4.84635 14.4805 5.10156L8.51953 9.58594C8.17318 9.80469 7.82682 9.80469 7.48047 9.58594L1.51953 5.10156C1.19141 4.84635 1.01823 4.5 1 4.0625C1.01823 3.69792 1.14583 3.38802 1.38281 3.13281C1.63802 2.89583 1.94792 2.76823 2.3125 2.75ZM1 5.8125L6.96094 10.2695C7.27083 10.5065 7.61719 10.625 8 10.625C8.38281 10.625 8.72917 10.5065 9.03906 10.2695L15 5.8125V11.5C14.9818 11.9922 14.8086 12.4023 14.4805 12.7305C14.1523 13.0586 13.7422 13.2318 13.25 13.25H2.75C2.25781 13.2318 1.84766 13.0586 1.51953 12.7305C1.19141 12.4023 1.01823 11.9922 1 11.5V5.8125Z" fill="#1D53C0"/>
</svg>
