<svg width="18" height="16" fill="none" xmlns="http://www.w3.org/2000/svg"><path d="M12.75 3.868c-.02.583-.23 1.26-.625 2.031a18.05 18.05 0 01-1.375 2.25 33.77 33.77 0 01-1.281 1.719.592.592 0 01-.469.219.592.592 0 01-.469-.22A33.705 33.705 0 017.25 8.15c-.52-.73-.98-1.48-1.375-2.25-.396-.77-.604-1.448-.625-2.031.02-1.063.385-1.948 1.094-2.656C7.052.503 7.937.139 9 .118c1.063.02 1.948.385 2.656 1.094.709.708 1.073 1.593 1.094 2.656zm.25 2.5l.313-.625V5.68c.02-.02.03-.041.03-.062L16.97 4.18c.27-.104.5-.083.687.063a.797.797 0 01.344.625v8.469c-.02.333-.177.562-.469.687L13 15.837v-9.47zM4.312 4.43c.084.459.209.896.375 1.313L5 6.368v7.875l-3.969 1.594c-.27.083-.5.052-.687-.094-.209-.125-.323-.333-.344-.625V6.68a.807.807 0 01.469-.718L4.313 4.43zm5.938 6.063c.48-.583 1.063-1.386 1.75-2.406v7.78L6 14.15V8.087c.688 1.02 1.27 1.823 1.75 2.406.354.396.77.594 1.25.594s.896-.198 1.25-.594zM9 4.868c.48-.02.844-.23 1.094-.625a1.328 1.328 0 000-1.25c-.25-.396-.615-.604-1.094-.625-.48.02-.844.23-1.094.625a1.328 1.328 0 000 1.25c.25.396.615.604 1.094.625z" fill="#1D53C0"/></svg>