<svg width="16" height="16" fill="none" xmlns="http://www.w3.org/2000/svg"><path d="M5.512 1.684l1.093 2.625c.165.492.055.911-.328 1.257L4.937 6.66a9.488 9.488 0 001.805 2.598 9.488 9.488 0 002.598 1.805l1.094-1.34c.346-.383.765-.493 1.257-.328l2.625 1.093c.274.11.465.283.575.52.109.255.136.52.082.793l-.657 2.406c-.182.492-.537.756-1.066.793-2.279-.018-4.339-.574-6.18-1.668A12.422 12.422 0 012.668 8.93C1.574 7.089 1.018 5.029 1 2.75c.036-.529.3-.884.793-1.066l2.406-.657c.274-.054.538-.027.793.082.237.11.41.301.52.575z" fill="#1D53C0"/></svg>