<svg width="30" height="24" fill="none" xmlns="http://www.w3.org/2000/svg"><path d="M15 0c.438 0 .797.14 1.078.422.281.281.422.64.422 1.078v3h5.625c.969.031 1.766.36 2.39.984.626.625.954 1.422.985 2.391v12.75c-.031.969-.36 1.766-.984 2.39-.625.626-1.422.954-2.391.985H7.875c-.969-.031-1.766-.36-2.39-.984-.626-.625-.954-1.422-.985-2.391V7.875c.031-.969.36-1.766.984-2.39.625-.626 1.422-.954 2.391-.985H13.5v-3c0-.438.14-.797.422-1.078C14.203.14 14.562 0 15 0zM9.75 18c-.469.031-.719.281-.75.75.031.469.281.719.75.75h1.5c.469-.031.719-.281.75-.75-.031-.469-.281-.719-.75-.75h-1.5zm4.5 0c-.469.031-.719.281-.75.75.031.469.281.719.75.75h1.5c.469-.031.719-.281.75-.75-.031-.469-.281-.719-.75-.75h-1.5zm4.5 0c-.469.031-.719.281-.75.75.031.469.281.719.75.75h1.5c.469-.031.719-.281.75-.75-.031-.469-.281-.719-.75-.75h-1.5zm-6.375-6c-.031-.719-.344-1.266-.938-1.64-.624-.313-1.25-.313-1.874 0-.594.374-.907.921-.938 1.64.031.719.344 1.266.938 1.64.624.313 1.25.313 1.874 0 .594-.374.907-.921.938-1.64zm7.125 1.875c.719-.031 1.266-.344 1.64-.938.313-.624.313-1.25 0-1.874-.374-.594-.921-.907-1.64-.938-.719.031-1.266.344-1.64.938-.313.624-.313 1.25 0 1.874.374.594.921.907 1.64.938zM2.25 10.5H3v9h-.75a2.446 2.446 0 01-1.594-.656A2.447 2.447 0 010 17.25v-4.5c.031-.625.25-1.156.656-1.594A2.446 2.446 0 012.25 10.5zm25.5 0c.625.031 1.156.25 1.594.656.406.438.625.969.656 1.594v4.5a2.446 2.446 0 01-.656 1.594 2.446 2.446 0 01-1.594.656H27v-9h.75z" fill="#1D53C0"/></svg>