<svg width="24" height="24" viewBox="0 0 24 24" fill="none" xmlns="http://www.w3.org/2000/svg">
<path d="M17 10.5C16.9792 11.9583 16.5625 13.2396 15.75 14.3438L19.7188 18.2812C19.9062 18.4896 20 18.7292 20 19C20 19.2708 19.9062 19.5104 19.7188 19.7188C19.5104 19.9062 19.2708 20 19 20C18.7292 20 18.4896 19.9062 18.2812 19.7188L14.3438 15.75C13.2396 16.5625 11.9583 16.9792 10.5 17C8.66667 16.9583 7.13542 16.3229 5.90625 15.0938C4.67708 13.8646 4.04167 12.3333 4 10.5C4.04167 8.66667 4.67708 7.13542 5.90625 5.90625C7.13542 4.67708 8.66667 4.04167 10.5 4C12.3333 4.04167 13.8646 4.67708 15.0938 5.90625C16.3229 7.13542 16.9583 8.66667 17 10.5ZM10.5 15C11.3125 15 12.0625 14.8021 12.75 14.4062C13.4375 14.0104 13.9896 13.4583 14.4062 12.75C14.8021 12.0417 15 11.2917 15 10.5C15 9.70833 14.8021 8.95833 14.4062 8.25C13.9896 7.54167 13.4375 6.98958 12.75 6.59375C12.0625 6.19792 11.3125 6 10.5 6C9.6875 6 8.9375 6.19792 8.25 6.59375C7.5625 6.98958 7.01042 7.54167 6.59375 8.25C6.19792 8.95833 6 9.70833 6 10.5C6 11.2917 6.19792 12.0417 6.59375 12.75C7.01042 13.4583 7.5625 14.0104 8.25 14.4062C8.9375 14.8021 9.6875 15 10.5 15Z" fill="#212126"/>
</svg>
