<svg width="24" height="22" fill="none" xmlns="http://www.w3.org/2000/svg"><path d="M6.703 5.703c-.812.844-1.406 1.781-1.781 2.813a1.654 1.654 0 01-.75.843A1.677 1.677 0 013 9.406a1.654 1.654 0 01-.844-.75 1.677 1.677 0 01-.047-1.172c.5-1.437 1.329-2.734 2.485-3.89C5.969 2.219 7.547 1.297 9.328.828a10.852 10.852 0 015.297 0c1.781.438 3.36 1.344 4.734 2.719l1.97-1.969c.374-.344.78-.422 1.218-.234.437.187.672.531.703 1.031v6c-.063.688-.438 1.063-1.125 1.125h-6c-.5-.031-.844-.266-1.031-.703-.188-.438-.11-.844.234-1.219l1.922-1.922C15.719 4.22 13.953 3.5 11.953 3.5c-1.969 0-3.719.734-5.25 2.203zM.75 13.625c.063-.688.438-1.063 1.125-1.125h6c.5.031.844.266 1.031.703.188.438.11.844-.234 1.219L6.75 16.344c1.531 1.437 3.297 2.156 5.297 2.156 1.969 0 3.719-.734 5.25-2.203.844-.813 1.437-1.75 1.781-2.813.156-.375.406-.656.75-.843A1.677 1.677 0 0121 12.594c.375.156.656.406.844.75.187.375.203.765.047 1.172-.5 1.437-1.328 2.734-2.485 3.89-1.375 1.375-2.953 2.297-4.734 2.766-1.75.437-3.516.437-5.297 0-1.781-.438-3.36-1.344-4.734-2.719l-1.97 1.969c-.374.344-.78.422-1.218.234-.437-.187-.672-.531-.703-1.031v-6z" fill="#1D53C0"/></svg>