<svg width="14" height="16" fill="none" xmlns="http://www.w3.org/2000/svg"><path d="M7 8c-.73 0-1.396-.177-2-.531A4.134 4.134 0 013.531 6 3.993 3.993 0 013 4c0-.708.177-1.375.531-2A4.134 4.134 0 015 .531 3.882 3.882 0 017 0c.73 0 1.396.177 2 .531A4.134 4.134 0 0110.469 2c.354.625.531 1.292.531 2s-.177 1.375-.531 2A4.134 4.134 0 019 7.469 3.882 3.882 0 017 8zM5.562 9.5h2.875c1.563.042 2.876.583 3.938 1.625 1.042 1.063 1.583 2.375 1.625 3.938 0 .27-.094.49-.281.656a.836.836 0 01-.656.281H.937a.836.836 0 01-.656-.281.836.836 0 01-.281-.656c.042-1.563.583-2.876 1.625-3.938C2.688 10.083 4 9.542 5.563 9.5z" fill="#212126"/></svg>