<svg width="10" height="10" viewBox="0 0 10 10" fill="none" xmlns="http://www.w3.org/2000/svg">
<path d="M9.71875 1.71875L6.40625 5L9.71875 8.28125C9.90625 8.48958 10 8.72917 10 9C10 9.27083 9.90625 9.51042 9.71875 9.71875C9.51042 9.90625 9.27083 10 9 10C8.72917 10 8.48958 9.90625 8.28125 9.71875L5 6.40625L1.71875 9.71875C1.51042 9.90625 1.27083 10 1 10C0.729167 10 0.489583 9.90625 0.28125 9.71875C0.09375 9.51042 0 9.27083 0 9C0 8.72917 0.09375 8.48958 0.28125 8.28125L3.59375 5L0.28125 1.71875C0.09375 1.51042 0 1.27083 0 1C0 0.729167 0.09375 0.489583 0.28125 0.28125C0.489583 0.09375 0.729167 0 1 0C1.27083 0 1.51042 0.09375 1.71875 0.28125L5 3.59375L8.28125 0.28125C8.48958 0.09375 8.72917 0 9 0C9.27083 0 9.51042 0.09375 9.71875 0.28125C9.90625 0.489583 10 0.729167 10 1C10 1.27083 9.90625 1.51042 9.71875 1.71875Z" fill="#D92B2B"/>
</svg>
